<?xml version="1.0" encoding="iso-8859-1"?>
<!-- Generator: Adobe Illustrator 18.0.0, SVG Export Plug-In . SVG Version: 6.00 Build 0)  -->
<!DOCTYPE svg PUBLIC "-//W3C//DTD SVG 1.1//EN" "http://www.w3.org/Graphics/SVG/1.1/DTD/svg11.dtd">
<svg xmlns="http://www.w3.org/2000/svg" xmlns:xlink="http://www.w3.org/1999/xlink" version="1.1" id="Capa_1" x="0px" y="0px" viewBox="0 0 192.287 192.287" style="enable-background:new 0 0 192.287 192.287;" xml:space="preserve" width="512px" height="512px">
<path d="M154.389,0h-52.86c-25.87,0-46.916,21.047-46.916,46.918c0,24.991,19.641,45.476,44.296,46.84  c-0.876,2.782-1.355,5.711-1.355,8.711c0,2.55,0.342,5.043,0.973,7.436c-1.77-0.125-3.556-0.189-5.355-0.189  c-14.297,0-27.831,4.004-38.112,11.275c-11.067,7.828-17.162,18.485-17.162,30.01c0,11.526,6.095,22.184,17.162,30.012  c10.28,7.27,23.815,11.275,38.112,11.275c14.298,0,27.833-4.004,38.112-11.275c11.066-7.828,17.161-18.486,17.161-30.012  c0-11.524-6.095-22.182-17.161-30.01c-3.476-2.459-7.333-4.535-11.458-6.218c-4.49-2.48-7.272-7.168-7.272-12.304  c0-5.099,2.772-9.808,7.236-12.288l-0.02-0.037c16.835-7.131,28.676-23.822,28.676-43.226c0-12.319-4.779-23.538-12.572-31.918  h18.516V0z M133.445,151c0,14.249-18.443,26.287-40.274,26.287c-21.83,0-40.273-12.038-40.273-26.287  c0-14.248,18.443-26.285,40.273-26.285C115.002,124.715,133.445,136.752,133.445,151z M133.445,46.918  c0,17.599-14.318,31.917-31.917,31.917c-17.599,0-31.916-14.318-31.916-31.917C69.612,29.318,83.93,15,101.528,15  C119.127,15,133.445,29.318,133.445,46.918z" fill="#FFFFFF"/>
<g>
</g>
<g>
</g>
<g>
</g>
<g>
</g>
<g>
</g>
<g>
</g>
<g>
</g>
<g>
</g>
<g>
</g>
<g>
</g>
<g>
</g>
<g>
</g>
<g>
</g>
<g>
</g>
<g>
</g>
</svg>
